<?xml version="1.0" encoding="UTF-8"?>
<svg id="Layer_1" xmlns="http://www.w3.org/2000/svg" version="1.1" viewBox="0 0 370.08 496.58">
  <!-- Generator: Adobe Illustrator 30.0.0, SVG Export Plug-In . SVG Version: 2.1.1 Build 123)  -->
  <path d="M370.08,111.08v274.43l-.99,10.88c-7.12,55.78-54.98,98.68-111.19,100.2H111.71c-56-2.02-103.16-43.93-110.72-99.48L0,387.42C0,294.67.01,201.91,0,109.16,2.69,51.08,50.91,2.78,109.07,0h151.7c59.51,2.98,107.01,51.79,109.31,111.08ZM254.64,14.64H110.27C57.77,17.38,16.53,59.7,14.63,112.15v271.81c1.87,54.01,44.72,96.62,98.76,97.99h141.25v-72.69H114.83c-14.27-.41-26.11-11.55-27.23-25.79v-98.95s97.44,0,97.44,0v-72.68h-97.44v-98.71c.97-13.67,11.91-24.67,25.55-25.8h141.49s0-72.68,0-72.68ZM267.6,197.2v-84.56c0-4.53-6.98-10.84-11.64-10.67-47.95.22-95.99-.47-143.88.35-4.92,1.13-9.83,6.62-9.83,11.76v83.12h165.36ZM267.6,299.15H102.24v83.12c0,5.81,5.68,11.63,11.39,12.12h143.05c4.54-.18,10.92-6.2,10.92-10.68v-84.56Z"/>
</svg>